<?xml version="1.0" encoding="iso-8859-1"?>
<!-- Generator: Adobe Illustrator 19.0.0, SVG Export Plug-In . SVG Version: 6.00 Build 0)  -->
<svg version="1.1" id="Layer_1" xmlns="http://www.w3.org/2000/svg" xmlns:xlink="http://www.w3.org/1999/xlink" x="0px" y="0px"
	 viewBox="0 0 512 512" style="enable-background:new 0 0 512 512;" xml:space="preserve">
<rect x="10.199" y="156.435" style="fill:#ABABAB;" width="491.602" height="199.129"/>
<rect x="43.857" y="190.307" style="fill:#8AE4FF;" width="424.287" height="131.376"/>
<path d="M501.801,365.764H10.199C4.567,365.764,0,361.197,0,355.565V156.435c0-5.632,4.567-10.199,10.199-10.199h491.602
	c5.632,0,10.199,4.567,10.199,10.199v199.129C512,361.198,507.433,365.764,501.801,365.764z M20.398,345.365h471.203V166.635H20.398
	V345.365z"/>
<path d="M468.143,331.887H43.857c-5.632,0-10.199-4.567-10.199-10.199V190.312c0-5.632,4.567-10.199,10.199-10.199h424.287
	c5.632,0,10.199,4.567,10.199,10.199v131.377C478.343,327.321,473.775,331.887,468.143,331.887z M54.056,311.489h403.888V200.511
	H54.056V311.489z"/>
<path d="M157.068,299.857H76.494c-5.632,0-10.199-4.567-10.199-10.199s4.567-10.199,10.199-10.199h80.574
	c5.632,0,10.199,4.567,10.199,10.199S162.7,299.857,157.068,299.857z"/>
<path d="M196.845,299.857h-6.12c-5.632,0-10.199-4.567-10.199-10.199s4.567-10.199,10.199-10.199h6.12
	c5.632,0,10.199,4.567,10.199,10.199S202.477,299.857,196.845,299.857z"/>
<g>
</g>
<g>
</g>
<g>
</g>
<g>
</g>
<g>
</g>
<g>
</g>
<g>
</g>
<g>
</g>
<g>
</g>
<g>
</g>
<g>
</g>
<g>
</g>
<g>
</g>
<g>
</g>
<g>
</g>
</svg>
