<?xml version="1.0" encoding="iso-8859-1"?>
<!-- Generator: Adobe Illustrator 19.0.0, SVG Export Plug-In . SVG Version: 6.00 Build 0)  -->
<svg version="1.1" id="Layer_1" xmlns="http://www.w3.org/2000/svg" xmlns:xlink="http://www.w3.org/1999/xlink" x="0px" y="0px"
	 viewBox="0 0 512 512" style="enable-background:new 0 0 512 512;" xml:space="preserve">
<path style="fill:#48AEE2;" d="M494.933,422.684H17.067C7.641,422.684,0,415.043,0,405.618V106.382
	c0-9.425,7.641-17.067,17.067-17.067h477.867c9.425,0,17.067,7.641,17.067,17.067v299.236
	C512,415.043,504.359,422.684,494.933,422.684z"/>
<path style="fill:#4390CB;" d="M494.933,89.316H255.997v333.369h238.937c9.425,0,17.067-7.641,17.067-17.067V106.382
	C512,96.957,504.359,89.316,494.933,89.316z"/>
<path style="fill:#FFD76E;" d="M108.089,248.604c-28.232,0-51.2-22.968-51.2-51.2s22.968-51.2,51.2-51.2s51.2,22.968,51.2,51.2
	S136.321,248.604,108.089,248.604z"/>
<g>
	<path style="fill:#3F72B4;" d="M426.667,296.391H308.338c-9.425,0-17.067-7.641-17.067-17.067c0-9.425,7.641-17.067,17.067-17.067
		h118.329c9.425,0,17.067,7.641,17.067,17.067C443.733,288.75,436.092,296.391,426.667,296.391z"/>
	<path style="fill:#3F72B4;" d="M426.667,353.28H308.338c-9.425,0-17.067-7.641-17.067-17.067s7.641-17.067,17.067-17.067h118.329
		c9.425,0,17.067,7.641,17.067,17.067S436.092,353.28,426.667,353.28z"/>
</g>
<path style="fill:#F5AA2C;" d="M108.089,146.204v102.4c28.232,0,51.2-22.968,51.2-51.2S136.321,146.204,108.089,146.204z"/>
<g>
</g>
<g>
</g>
<g>
</g>
<g>
</g>
<g>
</g>
<g>
</g>
<g>
</g>
<g>
</g>
<g>
</g>
<g>
</g>
<g>
</g>
<g>
</g>
<g>
</g>
<g>
</g>
<g>
</g>
</svg>
