<?xml version="1.0" encoding="iso-8859-1"?>
<!-- Generator: Adobe Illustrator 19.0.0, SVG Export Plug-In . SVG Version: 6.00 Build 0)  -->
<svg version="1.1" id="Layer_1" xmlns="http://www.w3.org/2000/svg" xmlns:xlink="http://www.w3.org/1999/xlink" x="0px" y="0px"
	 viewBox="0 0 512 512" style="enable-background:new 0 0 512 512;" xml:space="preserve">
<g>
	<g>
		<path d="M472.384,64.448l-213.333-64c-2.005-0.597-4.117-0.597-6.123,0l-213.333,64C35.072,65.792,32,69.952,32,74.667v234.667
			c0,94.336,143.829,178.219,220.843,202.197c1.024,0.32,2.112,0.469,3.157,0.469s2.155-0.149,3.157-0.469
			C336.149,487.573,480,403.669,480,309.333V74.667C479.979,69.952,476.885,65.792,472.384,64.448z M412.864,188.885l-70.635,70.635
			l19.648,98.24c0.768,1.472,1.195,3.136,1.195,4.907c0,5.888-4.779,10.667-10.667,10.667c-0.107,0-0.256,0.021-0.427,0
			c-1.771,0-3.563-0.448-5.184-1.344l-90.816-50.453l-90.816,50.453c-3.648,2.005-8.107,1.749-11.477-0.704
			c-3.349-2.453-4.971-6.635-4.16-10.709l20.203-101.056l-70.635-70.635c-2.901-2.901-3.883-7.211-2.517-11.072
			c1.365-3.861,4.821-6.613,8.875-7.083l90.539-10.048l50.645-91.179c3.797-6.763,14.869-6.763,18.667,0l50.645,91.179
			l90.539,10.048c4.053,0.448,7.531,3.2,8.875,7.083C416.704,181.696,415.744,185.984,412.864,188.885z"/>
	</g>
</g>
<g>
</g>
<g>
</g>
<g>
</g>
<g>
</g>
<g>
</g>
<g>
</g>
<g>
</g>
<g>
</g>
<g>
</g>
<g>
</g>
<g>
</g>
<g>
</g>
<g>
</g>
<g>
</g>
<g>
</g>
</svg>
